# xmcd
#
# Track frame offsets:
#	150
#	15607
#	31802
#	43442
#	53485
#	68177
#	80780
#	92927
#	102537
#	111307
#	138380
#	160030
#	171837
#	183535
#	203467
#	223800
#	236485
#	252210
#	265202
#	278170
#
# Disc length: 3888 seconds
#
# Revision: 1
# Processed by: cddbd v1.5.2PL0 Copyright (c) Steve Scherf et al.
# Submitted via: EZCDAudioConverter 3.1.5.1
#
DISCID=230f2e14
DTITLE=Γιάννης Μαρκόπουλος - Κύκλοι
DYEAR=1900
DGENRE=Ελληνικά
TTITLE0=Θέμης Ανδρεάδης, Λιλίκα Χριστοδούλου - Όχι, Δεν Πρέπει
TTITLE1=Βίκυ Μοσχολιού - Πέρα Από Τη Θάλασσα
TTITLE2=Κώστας Χατζής - Γκρεμισμένα Σπίτια
TTITLE3=Μαρινέλλα - Κάτω Στης Μαργαρίτας Τ' Αλωνάκι
TTITLE4=Στέλιος Καζαντζίδης	 - Ποιος Δρόμος
TTITLE5=Μέμη Σπυράτου	 - Σουρλάντα - Νταγιάντα
TTITLE6=Ορχηστρικό*	 - O Bαρκάρης
TTITLE7=Μαρία Δημητριάδη	 - Κάτω Στης Μαργαρίτας Τ' Αλωνάκι
TTITLE8=Νίκος Ξυλούρης	 - Έντιμο Αίμα (Τα Παιδιά)
TTITLE9=Χάρις Αλεξίου	 - Λένγκω (Ελλάδα)
TTITLE10=Χαράλαμπος Γαργανουράκης	 - Τα Λόγια Και Τα Χρόνια
TTITLE11=Ορχηστρικό*	 - Μαλαματένια Λόγια
TTITLE12=Βίκυ Μοσχολιού	 - Το Πέραμα
TTITLE13=Χορωδία*	 - Ο Τόπος Μας Είναι Κλειστός
TTITLE14=Νίκος Ξυλούρης	 - Είδα Τον Παππούλη Μου
TTITLE15=Βασιλική Λαβίνα	 - Τραγουδώ Τραγουδώ
TTITLE16=Θέμης Ανδρεάδης	 - Ο Ταρζάν
TTITLE17=Χάρις Αλεξίου	 - Η Ρόζα Η Ναζιάρα
TTITLE18=Νίκος Ξυλούρης	 - Την Εικόνα Σου (Χρώματα Κι Αρώματα)
TTITLE19=Μαρία Δημητριάδη	 - Καφενείον: Η Ελλάς
EXTD=
EXTT0=
EXTT1=
EXTT2=
EXTT3=
EXTT4=
EXTT5=
EXTT6=
EXTT7=
EXTT8=
EXTT9=
EXTT10=
EXTT11=
EXTT12=
EXTT13=
EXTT14=
EXTT15=
EXTT16=
EXTT17=
EXTT18=
EXTT19=
PLAYORDER=
